<svg width="39" height="28" viewBox="0 0 39 28" fill="none" xmlns="http://www.w3.org/2000/svg">
<g filter="url(#filter0_dd_317_46585)">
<g clip-path="url(#clip0_317_46585)">
<mask id="mask0_317_46585" style="mask-type:luminance" maskUnits="userSpaceOnUse" x="2" y="1" width="36" height="24">
<rect x="2" y="1" width="36" height="24" fill="white"/>
</mask>
<g mask="url(#mask0_317_46585)">
<path fill-rule="evenodd" clip-rule="evenodd" d="M2 1V25H38V1H2Z" fill="#F7FCFF"/>
<mask id="mask1_317_46585" style="mask-type:luminance" maskUnits="userSpaceOnUse" x="2" y="1" width="36" height="24">
<path fill-rule="evenodd" clip-rule="evenodd" d="M2 1V25H38V1H2Z" fill="white"/>
</mask>
<g mask="url(#mask1_317_46585)">
<path fill-rule="evenodd" clip-rule="evenodd" d="M20 20.5C24.6599 20.5 28.4375 17.1421 28.4375 13C28.4375 8.85786 24.6599 5.5 20 5.5C15.3401 5.5 11.5625 8.85786 11.5625 13C11.5625 17.1421 15.3401 20.5 20 20.5Z" fill="#E31D1C"/>
</g>
</g>
</g>
</g>
<defs>
<filter id="filter0_dd_317_46585" x="0" y="0" width="39" height="27.9966" filterUnits="userSpaceOnUse" color-interpolation-filters="sRGB">
<feFlood flood-opacity="0" result="BackgroundImageFix"/>
<feColorMatrix in="SourceAlpha" type="matrix" values="0 0 0 0 0 0 0 0 0 0 0 0 0 0 0 0 0 0 127 0" result="hardAlpha"/>
<feOffset dy="1"/>
<feGaussianBlur stdDeviation="1"/>
<feColorMatrix type="matrix" values="0 0 0 0 0.0627451 0 0 0 0 0.0941176 0 0 0 0 0.156863 0 0 0 0.06 0"/>
<feBlend mode="normal" in2="BackgroundImageFix" result="effect1_dropShadow_317_46585"/>
<feColorMatrix in="SourceAlpha" type="matrix" values="0 0 0 0 0 0 0 0 0 0 0 0 0 0 0 0 0 0 127 0" result="hardAlpha"/>
<feOffset dy="1"/>
<feGaussianBlur stdDeviation="1.5"/>
<feColorMatrix type="matrix" values="0 0 0 0 0.0627451 0 0 0 0 0.0941176 0 0 0 0 0.156863 0 0 0 0.1 0"/>
<feBlend mode="normal" in2="effect1_dropShadow_317_46585" result="effect2_dropShadow_317_46585"/>
<feBlend mode="normal" in="SourceGraphic" in2="effect2_dropShadow_317_46585" result="shape"/>
</filter>
<clipPath id="clip0_317_46585">
<rect x="3" y="2" width="33" height="21.9966" rx="2" fill="white"/>
</clipPath>
</defs>
</svg>
