<svg width="39" height="28" viewBox="0 0 39 28" fill="none" xmlns="http://www.w3.org/2000/svg">
<g id="size=33, &#235;&#140;&#128;&#235;&#165;&#153;=South-East Asia, country=Singapore" filter="url(#filter0_dd_317_44512)">
<g clip-path="url(#clip0_317_44512)">
<g id="flag">
<mask id="mask0_317_44512" style="mask-type:luminance" maskUnits="userSpaceOnUse" x="2" y="1" width="36" height="24">
<rect id="mask" x="2" y="1" width="36" height="24" fill="white"/>
</mask>
<g mask="url(#mask0_317_44512)">
<g id="contents">
<path id="background" fill-rule="evenodd" clip-rule="evenodd" d="M2 1V25H38V1H2Z" fill="#F7FCFF"/>
<mask id="mask1_317_44512" style="mask-type:luminance" maskUnits="userSpaceOnUse" x="2" y="1" width="36" height="24">
<path id="background_2" fill-rule="evenodd" clip-rule="evenodd" d="M2 1V25H38V1H2Z" fill="white"/>
</mask>
<g mask="url(#mask1_317_44512)">
<path id="top" fill-rule="evenodd" clip-rule="evenodd" d="M2 1V13H38V1H2Z" fill="#E31D1C"/>
<path id="mark" fill-rule="evenodd" clip-rule="evenodd" d="M11.9769 11.5896C11.9769 11.5896 8.798 10.4531 8.798 7.37399C8.798 4.29492 11.9769 3.19514 11.9769 3.19514C10.4319 2.84747 6.33228 3.15843 6.33228 7.37399C6.33228 11.5896 10.37 12.3846 11.9769 11.5896ZM12.7914 11.0806L13.7033 10.5912L14.6354 11.0806L14.4073 10.1257L15.1649 9.37232H14.1384L13.7033 8.48062L13.2683 9.37232L12.2399 9.41096L12.9994 10.1257L12.7914 11.0806ZM17.0179 10.5366L16.1059 11.026L16.314 10.071L15.5545 9.35631L16.5828 9.31766L17.0179 8.42596L17.453 9.31766H18.4795L17.7218 10.071L17.9499 11.026L17.0179 10.5366ZM14.698 6.76986L15.61 6.28049L16.542 6.76986L16.3139 5.8149L17.0716 5.06156H16.0451L15.61 4.16986L15.1749 5.06156L14.1466 5.1002L14.9061 5.8149L14.698 6.76986ZM12.541 8.22263L11.629 8.712L11.837 7.75704L11.0776 7.04234L12.1059 7.0037L12.541 6.112L12.976 7.0037H14.0026L13.2449 7.75704L13.473 8.712L12.541 8.22263ZM17.6572 8.66815L18.5692 8.17877L19.5012 8.66815L19.2731 7.71318L20.0308 6.95984H19.0042L18.5692 6.06815L18.1341 6.95984L17.1058 6.99849L17.8652 7.71318L17.6572 8.66815Z" fill="#F1F9FF"/>
</g>
</g>
</g>
</g>
</g>
</g>
<defs>
<filter id="filter0_dd_317_44512" x="0" y="0" width="39" height="27.9966" filterUnits="userSpaceOnUse" color-interpolation-filters="sRGB">
<feFlood flood-opacity="0" result="BackgroundImageFix"/>
<feColorMatrix in="SourceAlpha" type="matrix" values="0 0 0 0 0 0 0 0 0 0 0 0 0 0 0 0 0 0 127 0" result="hardAlpha"/>
<feOffset dy="1"/>
<feGaussianBlur stdDeviation="1"/>
<feColorMatrix type="matrix" values="0 0 0 0 0.0627451 0 0 0 0 0.0941176 0 0 0 0 0.156863 0 0 0 0.06 0"/>
<feBlend mode="normal" in2="BackgroundImageFix" result="effect1_dropShadow_317_44512"/>
<feColorMatrix in="SourceAlpha" type="matrix" values="0 0 0 0 0 0 0 0 0 0 0 0 0 0 0 0 0 0 127 0" result="hardAlpha"/>
<feOffset dy="1"/>
<feGaussianBlur stdDeviation="1.5"/>
<feColorMatrix type="matrix" values="0 0 0 0 0.0627451 0 0 0 0 0.0941176 0 0 0 0 0.156863 0 0 0 0.1 0"/>
<feBlend mode="normal" in2="effect1_dropShadow_317_44512" result="effect2_dropShadow_317_44512"/>
<feBlend mode="normal" in="SourceGraphic" in2="effect2_dropShadow_317_44512" result="shape"/>
</filter>
<clipPath id="clip0_317_44512">
<rect x="3" y="2" width="33" height="21.9966" rx="2" fill="white"/>
</clipPath>
</defs>
</svg>
