<svg width="39" height="28" viewBox="0 0 39 28" fill="none" xmlns="http://www.w3.org/2000/svg">
<g filter="url(#filter0_dd_317_44403)">
<g clip-path="url(#clip0_317_44403)">
<mask id="mask0_317_44403" style="mask-type:luminance" maskUnits="userSpaceOnUse" x="2" y="1" width="36" height="24">
<rect x="2" y="1" width="36" height="24" fill="white"/>
</mask>
<g mask="url(#mask0_317_44403)">
<path fill-rule="evenodd" clip-rule="evenodd" d="M2 1V25H38V1H2Z" fill="#3D58DB"/>
<mask id="mask1_317_44403" style="mask-type:luminance" maskUnits="userSpaceOnUse" x="2" y="1" width="36" height="24">
<path fill-rule="evenodd" clip-rule="evenodd" d="M2 1V25H38V1H2Z" fill="white"/>
</mask>
<g mask="url(#mask1_317_44403)">
<path fill-rule="evenodd" clip-rule="evenodd" d="M2 1V9H38V1H2Z" fill="#F7FCFF"/>
<path fill-rule="evenodd" clip-rule="evenodd" d="M2 17V25H38V17H2Z" fill="#E31D1C"/>
<path d="M19.5544 7.03027L20.0509 6.97085L19.9982 6.53027H19.5544H9.13798H8.67447L8.63941 6.99245L9.13798 7.03027L8.6394 6.99255L8.63939 6.99276L8.63932 6.99357L8.63909 6.99665L8.6382 7.00861L8.63476 7.05492L8.62199 7.23125C8.61113 7.38372 8.59588 7.60308 8.57834 7.87115C8.54326 8.40711 8.49893 9.13868 8.46199 9.92028C8.38931 11.4579 8.34054 13.2665 8.46752 14.1147C8.71718 15.7823 9.85376 19.4572 14.1712 21.1149L14.3535 21.1849L14.5351 21.1128C18.6353 19.4831 20.0289 16.1863 20.3517 14.1177C20.5138 13.079 20.4313 11.2677 20.3184 9.76911C20.2611 9.00845 20.1943 8.30958 20.1418 7.80105C20.1156 7.54667 20.0929 7.33963 20.0768 7.19597C20.0687 7.12413 20.0623 7.06812 20.0578 7.02993L20.0527 6.98627L20.0514 6.97494L20.051 6.97198L20.0509 6.97118L20.0509 6.97096C20.0509 6.9709 20.0509 6.97085 19.5544 7.03027Z" fill="#E31D1C" stroke="white"/>
<mask id="mask2_317_44403" style="mask-type:luminance" maskUnits="userSpaceOnUse" x="7" y="6" width="14" height="16">
<path d="M19.5544 7.03027L20.0509 6.97085L19.9982 6.53027H19.5544H9.13798H8.67447L8.63941 6.99245L9.13798 7.03027L8.6394 6.99255L8.63939 6.99276L8.63932 6.99357L8.63909 6.99665L8.6382 7.00861L8.63476 7.05492L8.62199 7.23125C8.61113 7.38372 8.59588 7.60308 8.57834 7.87115C8.54326 8.40711 8.49893 9.13868 8.46199 9.92028C8.38931 11.4579 8.34054 13.2665 8.46752 14.1147C8.71718 15.7823 9.85376 19.4572 14.1712 21.1149L14.3535 21.1849L14.5351 21.1128C18.6353 19.4831 20.0289 16.1863 20.3517 14.1177C20.5138 13.079 20.4313 11.2677 20.3184 9.76911C20.2611 9.00845 20.1943 8.30958 20.1418 7.80105C20.1156 7.54667 20.0929 7.33963 20.0768 7.19597C20.0687 7.12413 20.0623 7.06812 20.0578 7.02993L20.0527 6.98627L20.0514 6.97494L20.051 6.97198L20.0509 6.97118L20.0509 6.97096C20.0509 6.9709 20.0509 6.97085 19.5544 7.03027Z" fill="white" stroke="white"/>
</mask>
<g mask="url(#mask2_317_44403)">
<path fill-rule="evenodd" clip-rule="evenodd" d="M13.5394 7.5896C13.5394 7.5896 13.7717 7.90422 13.8757 8.3853C13.9797 8.86639 13.9976 9.7093 13.9976 9.7093L11.7939 9.46812V10.9534L14.0469 10.6984L14.0102 12.1081C14.0102 12.1081 13.3362 12.1702 12.7834 12.1081C12.2306 12.046 11.1416 11.7858 11.1416 11.7858V13.4862C11.1416 13.4862 12.248 13.1715 12.7834 13.0993C13.3188 13.0271 14.0102 13.0993 14.0102 13.0993V15.1877H14.9249V13.0993C14.9249 13.0993 15.9248 13.0221 16.5212 13.1057C17.1177 13.1894 17.6834 13.4862 17.6834 13.4862V11.7858C17.6834 11.7858 17.1102 12.0396 16.5696 12.1028C16.029 12.166 14.9249 12.1081 14.9249 12.1081L14.9615 10.6984C14.9615 10.6984 15.7099 10.6295 16.1298 10.6802C16.5496 10.7308 17.0752 10.9534 17.0752 10.9534V9.46812C17.0752 9.46812 16.563 9.71586 16.16 9.7608C15.7569 9.80574 14.9123 9.7093 14.9123 9.7093C14.9123 9.7093 14.9273 8.83944 15.0139 8.41588C15.1006 7.99232 15.346 7.5896 15.346 7.5896H13.5394Z" fill="#F7FCFF"/>
<path fill-rule="evenodd" clip-rule="evenodd" d="M9.75952 17.2452C9.75952 17.2452 10.254 16.302 11.0585 16.1226C11.863 15.9433 12.7066 16.6839 12.7066 16.6839C12.7066 16.6839 13.2218 15.1875 14.4774 15.1875C15.733 15.1875 16.1737 16.6839 16.1737 16.6839C16.1737 16.6839 16.7094 16.1226 17.4797 16.1226C18.2501 16.1226 18.9639 17.2452 18.9639 17.2452C18.9639 17.2452 16.6628 20.9587 14.3617 20.9587C12.0606 20.9587 9.75952 17.2452 9.75952 17.2452Z" fill="#2E42A5"/>
</g>
</g>
</g>
</g>
</g>
<defs>
<filter id="filter0_dd_317_44403" x="0" y="0" width="39" height="27.9966" filterUnits="userSpaceOnUse" color-interpolation-filters="sRGB">
<feFlood flood-opacity="0" result="BackgroundImageFix"/>
<feColorMatrix in="SourceAlpha" type="matrix" values="0 0 0 0 0 0 0 0 0 0 0 0 0 0 0 0 0 0 127 0" result="hardAlpha"/>
<feOffset dy="1"/>
<feGaussianBlur stdDeviation="1"/>
<feColorMatrix type="matrix" values="0 0 0 0 0.0627451 0 0 0 0 0.0941176 0 0 0 0 0.156863 0 0 0 0.06 0"/>
<feBlend mode="normal" in2="BackgroundImageFix" result="effect1_dropShadow_317_44403"/>
<feColorMatrix in="SourceAlpha" type="matrix" values="0 0 0 0 0 0 0 0 0 0 0 0 0 0 0 0 0 0 127 0" result="hardAlpha"/>
<feOffset dy="1"/>
<feGaussianBlur stdDeviation="1.5"/>
<feColorMatrix type="matrix" values="0 0 0 0 0.0627451 0 0 0 0 0.0941176 0 0 0 0 0.156863 0 0 0 0.1 0"/>
<feBlend mode="normal" in2="effect1_dropShadow_317_44403" result="effect2_dropShadow_317_44403"/>
<feBlend mode="normal" in="SourceGraphic" in2="effect2_dropShadow_317_44403" result="shape"/>
</filter>
<clipPath id="clip0_317_44403">
<rect x="3" y="2" width="33" height="21.9966" rx="2" fill="white"/>
</clipPath>
</defs>
</svg>
